<svg width="179px" height="179px" viewBox="0 0 128 128" xmlns="http://www.w3.org/2000/svg" xmlns:xlink="http://www.w3.org/1999/xlink" aria-hidden="true" role="img" class="iconify iconify--noto" preserveAspectRatio="xMidYMid meet" fill="#000000"><g id="SVGRepo_bgCarrier" stroke-width="0"></g><g id="SVGRepo_tracerCarrier" stroke-linecap="round" stroke-linejoin="round"></g><g id="SVGRepo_iconCarrier"><path fill="#d1dd27" d="M30.47 104.24h13.39v13.39H30.47z"></path><path fill="#d1dd27" d="M84.04 104.24h13.39v13.39H84.04z"></path><path fill="#c5d20f" d="M30.48 10.51h13.39V23.9H30.48z"></path><path fill="#c5d20f" d="M84.04 10.51h13.39V23.9H84.04z"></path><radialGradient id="IconifyId17ecdb2904d178eab5528" cx="64.344" cy="9.403" r="83.056" gradientUnits="userSpaceOnUse"><stop offset=".508" stop-color="#c5d20f"></stop><stop offset=".684" stop-color="#dfd34e"></stop><stop offset=".878" stop-color="#e9ec41"></stop><stop offset=".981" stop-color="#d1dd27"></stop></radialGradient><path d="M97.46 64.08V37.3H84.04V23.9H70.65v13.4H57.26V23.9H43.87v13.4H30.48v26.78H17.09v13.39h13.39v13.4h13.39v13.38h13.39V90.87h13.39v13.38h13.39V90.87h13.42v-13.4h13.37V64.08H97.46zm-40.21 0H43.86V50.69h13.39v13.39zm26.78 0H70.64V50.69h13.39v13.39z" fill="url(#IconifyId17ecdb2904d178eab5528)"></path><radialGradient id="IconifyId17ecdb2904d178eab5529" cx="63.118" cy="24.114" r="65.281" gradientUnits="userSpaceOnUse"><stop offset=".508" stop-color="#c5d20f"></stop><stop offset=".684" stop-color="#dfd34e"></stop><stop offset=".878" stop-color="#e9ec41"></stop><stop offset=".981" stop-color="#d1dd27"></stop></radialGradient><path fill="url(#IconifyId17ecdb2904d178eab5529)" d="M110.82 37.29h13.4v26.8h-13.4z"></path><radialGradient id="IconifyId17ecdb2904d178eab5530" cx="62.811" cy="13.081" r="75.09" gradientUnits="userSpaceOnUse"><stop offset=".508" stop-color="#c5d20f"></stop><stop offset=".684" stop-color="#dfd34e"></stop><stop offset=".878" stop-color="#e9ec41"></stop><stop offset=".981" stop-color="#d1dd27"></stop></radialGradient><path fill="url(#IconifyId17ecdb2904d178eab5530)" d="M3.7 37.28h13.4v26.8H3.7z"></path></g></svg>
