<?xml version="1.0" encoding="UTF-8" standalone="no" ?>
<!DOCTYPE svg PUBLIC "-//W3C//DTD SVG 1.1//EN" "http://www.w3.org/Graphics/SVG/1.1/DTD/svg11.dtd">
<svg xmlns="http://www.w3.org/2000/svg" xmlns:xlink="http://www.w3.org/1999/xlink" version="1.1" width="1080" height="1080" viewBox="0 0 1080 1080" xml:space="preserve">
<desc>Created with Fabric.js 5.2.4</desc>
<defs>
</defs>
<g transform="matrix(1 0 0 1 540 540)" id="007e5eee-4d7b-41ba-981b-5275e11be175"  >
<rect style="stroke: none; stroke-width: 1; stroke-dasharray: none; stroke-linecap: butt; stroke-dashoffset: 0; stroke-linejoin: miter; stroke-miterlimit: 4; fill: rgb(255,255,255); fill-rule: nonzero; opacity: 1; visibility: hidden;" vector-effect="non-scaling-stroke"  x="-540" y="-540" rx="0" ry="0" width="1080" height="1080" />
</g>
<g transform="matrix(1 0 0 1 540 540)" id="0eff8318-a9ce-452f-9396-27d7f89699c4"  >
</g>
<g transform="matrix(33.75 0 0 33.75 540 540)" id="rect1389"  >
<path style="stroke: none; stroke-width: 1; stroke-dasharray: none; stroke-linecap: butt; stroke-dashoffset: 0; stroke-linejoin: miter; stroke-miterlimit: 4; fill: rgb(32,74,135); fill-rule: nonzero; opacity: 1;"  transform=" translate(-16, -16)" d="M 12.345 6.2426 L 12.345 8.7103 L 6.938200000000001 8.7103 L 6.938200000000001 11.0948 L 5.158500000000001 11.0948 L 5.158500000000001 18.4223 L 26.8425 18.4223 L 26.8425 11.0948 L 24.995 11.0948 L 24.995 8.7103 L 19.656 8.7103 L 19.656 6.2426 L 12.345299999999998 6.2426 z M 10.5653 13.653300000000002 L 14.124600000000001 13.653300000000002 L 14.124600000000001 16.0378 L 10.5653 16.0378 L 10.5653 13.653300000000002 z M 17.876 13.653300000000002 L 21.4353 13.653300000000002 L 21.4353 16.0378 L 17.876 16.0378 L 17.876 13.653300000000002 z M 10.559600000000001 18.3048 L 10.559600000000001 20.8975 L 8.7178 20.8975 L 8.7178 23.282 L 5.1585 23.282 L 5.1585 25.7573 L 8.780000000000001 25.7573 L 8.780000000000001 23.3653 L 12.339300000000001 23.3653 L 12.339300000000001 20.8976 L 14.186800000000002 20.8976 L 14.186800000000002 18.3049 L 10.559700000000001 18.3049 z M 14.186700000000002 20.8975 L 14.186700000000002 23.3652 L 17.808200000000003 23.3652 L 17.808200000000003 20.8975 L 14.186700000000002 20.8975 z M 17.808200000000003 20.8975 L 19.593500000000002 20.8975 L 19.593500000000002 23.282 L 23.215000000000003 23.282 L 23.215000000000003 20.8143 L 21.435300000000005 20.8143 L 21.435300000000005 18.3048 L 17.808200000000006 18.3048 L 17.808200000000006 20.8975 z M 23.215000000000003 23.282 L 23.215000000000003 25.7573 L 26.842100000000002 25.7573 L 26.842100000000002 23.282 L 23.215000000000003 23.282 z" stroke-linecap="round" />
</g>
<g transform="matrix(33.75 0 0 33.75 540 540)" id="rect1389"  >
<path style="stroke: none; stroke-width: 1; stroke-dasharray: none; stroke-linecap: butt; stroke-dashoffset: 0; stroke-linejoin: miter; stroke-miterlimit: 4; fill: rgb(189,182,27); fill-rule: nonzero; opacity: 1;"  transform=" translate(-16, -16)" d="M 12.345 6.2426 L 12.345 8.7103 L 6.938200000000001 8.7103 L 6.938200000000001 11.0948 L 5.158500000000001 11.0948 L 5.158500000000001 18.4223 L 26.8425 18.4223 L 26.8425 11.0948 L 24.995 11.0948 L 24.995 8.7103 L 19.656 8.7103 L 19.656 6.2426 L 12.345299999999998 6.2426 z M 10.5653 13.653300000000002 L 14.124600000000001 13.653300000000002 L 14.124600000000001 16.0378 L 10.5653 16.0378 L 10.5653 13.653300000000002 z M 17.876 13.653300000000002 L 21.4353 13.653300000000002 L 21.4353 16.0378 L 17.876 16.0378 L 17.876 13.653300000000002 z M 10.559600000000001 18.3048 L 10.559600000000001 20.8975 L 8.7178 20.8975 L 8.7178 23.282 L 5.1585 23.282 L 5.1585 25.7573 L 8.780000000000001 25.7573 L 8.780000000000001 23.3653 L 12.339300000000001 23.3653 L 12.339300000000001 20.8976 L 14.186800000000002 20.8976 L 14.186800000000002 18.3049 L 10.559700000000001 18.3049 z M 14.186700000000002 20.8975 L 14.186700000000002 23.3652 L 17.808200000000003 23.3652 L 17.808200000000003 20.8975 L 14.186700000000002 20.8975 z M 17.808200000000003 20.8975 L 19.593500000000002 20.8975 L 19.593500000000002 23.282 L 23.215000000000003 23.282 L 23.215000000000003 20.8143 L 21.435300000000005 20.8143 L 21.435300000000005 18.3048 L 17.808200000000006 18.3048 L 17.808200000000006 20.8975 z M 23.215000000000003 23.282 L 23.215000000000003 25.7573 L 26.842100000000002 25.7573 L 26.842100000000002 23.282 L 23.215000000000003 23.282 z" stroke-linecap="round" />
</g>
<g transform="matrix(1 0 0 1 701.9 194.52)" id="327260a3-3c31-49c5-8ebb-0602d155799a"  >
<rect style="stroke: rgb(0,0,0); stroke-width: 0; stroke-dasharray: none; stroke-linecap: butt; stroke-dashoffset: 0; stroke-linejoin: miter; stroke-miterlimit: 4; fill: rgb(172,48,212); fill-rule: nonzero; opacity: 1;" vector-effect="non-scaling-stroke"  x="-37.4585" y="-19.4165" rx="0" ry="0" width="74.917" height="38.833" />
</g>
<g transform="matrix(1 0 0 1 382.44 198.85)" id="29b4a4a7-5bfb-4812-9c4a-5277643aa6e0"  >
<rect style="stroke: rgb(0,0,0); stroke-width: 0; stroke-dasharray: none; stroke-linecap: butt; stroke-dashoffset: 0; stroke-linejoin: miter; stroke-miterlimit: 4; fill: rgb(184,25,206); fill-rule: nonzero; opacity: 1;" vector-effect="non-scaling-stroke"  x="-37.4585" y="-19.4165" rx="0" ry="0" width="74.917" height="38.833" />
</g>
</svg>
