<?xml version="1.0" encoding="utf-8"?>
<!-- Generator: Adobe Illustrator 27.5.0, SVG Export Plug-In . SVG Version: 6.00 Build 0)  -->
<svg version="1.1" id="Capa_1" xmlns="http://www.w3.org/2000/svg" xmlns:xlink="http://www.w3.org/1999/xlink" x="0px" y="0px"
	 viewBox="0 0 2122 2122" style="enable-background:new 0 0 2122 2122;" xml:space="preserve">
<g>
	<path style="fill:#F9AF1D;" d="M807.776,546.869c74.328,85.371,131.916,138.104,245.418,132.126
		c229.66-12.098,374.069-284.79,454.423-460.535c-68.978,150.864-167.746,351.942-59.151,514.693
		c84.56,126.73,374.541,156.019,503.389,100.499c-66.152,48.723-135.601,128.857-155.527,211.38
		c-16.106,66.704,8.863,206.603,79.575,237.487c-174.168-107.628-421.111-89.164-572.55,52.607
		c-156.688,146.685-143.577,437.5-137.275,634.319c3.671-205.42-52.928-479.78-225.562-612.634
		c-146.967-113.101-346.647,103.453-409.47,230.983c74.932-121.328,164.189-363.919,49.057-489.771
		c-114.443-125.099-398.529-44.393-550.418-46.422c147.839-2.322,354.873-62.306,472.672-153.537
		c92.288-71.473,139.269-153.814,152.74-270.269c11.332-97.958-15.693-177.545-42.395-269.458
		c-16.415-56.504-46.847-170.405-84.237-246.329c43.006,86.34,92.491,170.171,145.835,250.468
		C712.221,419.553,756.007,487.408,807.776,546.869z"/>
	<path style="fill:#F08022;" d="M1596.5,1163.464c-42.26-144.344,63.28-192.721,98.607-215.755
		c-214.822-17.334-429.643-66.531-355.689-358.967c-57.075,146.989-272.039,286.363-392.582,204.924
		c-71.285-48.161-154.513-126.919-201.09-200.668c-0.078,14.691,4.137-14.73,0,0c39.01,97.512,20.628,164.819,7.315,222.648
		c-26.413,114.729-173.081,152.951-235.263,164.531c182.899-0.916,272.241,183.286,187.721,319.698
		c177.884-136.412,348.645-58.221,433.165,126.269C1138.683,1426.145,1191.508,1019.12,1596.5,1163.464z"/>
	<path style="fill:#E9492C;" d="M1401.344,946.104c-33.891-10.106-59.94-34.499-76.48-65.285
		c-17.161-31.94-25.031-68.172-29.209-104.021c-0.812,1.628-1.556,3.291-2.409,4.899c-15.615,29.393-38.269,54.655-66.538,72.35
		c-26.929,16.858-57.774,26.343-89.142,30.404c-32.934,4.264-66.456,2.586-99.171-2.694c-33.432-5.396-66.24-14.684-97.761-27.021
		c-27.685-10.835-54.534-24.021-79.637-39.983c0.033,0.085,0.093,0.138,0.119,0.232c4.742,16.824,6.089,34.505,4.412,51.887
		c-2.98,30.883-14.911,60.936-34.375,85.141c-18.3,22.758-43.706,39.503-72.506,44.833c10.393,9.212,20.98,18.203,31.297,27.501
		c18.364,16.552,36.836,34.815,46.715,57.911c9.985,23.345,8.289,48.302,0.139,71.741c20.643-10.071,42.619-17.214,65.516-19.825
		c39.52-4.507,78.795,5.655,113.152,25.119c34.698,19.659,64.165,47.58,89.601,78.094c0.191-2.063,0.32-4.132,0.577-6.188
		c3.706-29.657,14.362-58.091,31.967-82.318c16.854-23.195,39.063-41.958,63.626-56.564c25.97-15.443,54.493-26.45,83.629-34.244
		c29.636-7.927,60.155-12.592,90.758-14.552c27.261-1.747,54.705-1.27,81.865,1.743c-9.098-31.364-3.683-65.26,9.855-94.604
		C1445.302,953.093,1422.7,952.474,1401.344,946.104z"/>
	<path style="fill:#F08022;" d="M1647.429,353.771c-15.278,17.306-145.343,208.772-145.343,208.772l16.098,77.224L1647.429,353.771z
		"/>
	<path style="fill:#F08022;" d="M1428.64,1725.657c-5.945-18.563-88.567-195.673-88.567-195.673l-62.965-21.714L1428.64,1725.657z"
		/>
	<path style="fill:#F9AF1D;" d="M1015.649,152.431c-4.568,22.629-30.993,367.735-30.993,367.735l47.635,9.328L1015.649,152.431z"/>
	<path style="fill:#F9AF1D;" d="M1968.051,386.276c-18.125,14.299-337.924,336.323-337.924,336.323l30.284,37.934L1968.051,386.276z
		"/>
	<path style="fill:#F08022;" d="M189.639,476.017c15.204,17.372,273.333,247.95,273.333,247.95l36.34-32.18L189.639,476.017z"/>
	<path style="fill:#F9AF1D;" d="M598.43,1742.557c15.326-17.264,211.693-302.284,211.693-302.284l-36.485-32.015L598.43,1742.557z"
		/>
	<path style="fill:#F08022;" d="M883.402,2009.314c6.516-22.147,81.704-487.846,81.704-487.846l-46.645-13.429L883.402,2009.314z"/>
	<path style="fill:#F08022;" d="M457.641,1356.087c10.119-12.691,102.374-165.894,102.374-165.894l-26.808-21.12L457.641,1356.087z"
		/>
	<path style="fill:#E9492C;" d="M151.815,1289.42c18.033-4.953,277.266-111.766,277.266-111.766l-10.635-37.855L151.815,1289.42z"/>
	<path style="fill:#E9492C;" d="M1876.388,1596.296c-21.028-21.707-373.777-306.107-373.777-306.107l-45.385,44.478
		L1876.388,1596.296z"/>
	<path style="fill:#E9492C;" d="M2091.633,1084.261c-14.781-3.206-240.605-23.772-240.605-23.772l-6.56,31.117L2091.633,1084.261z"
		/>
	<path style="fill:#F9AF1D;" d="M166.827,794.991c14.619,3.879,239.264,34.766,239.264,34.766l7.978-30.784L166.827,794.991z"/>
	<g>
		<path style="fill:#F9AF1D;" d="M1702.448,342.997c-34.599,4.018-76.921-19.019-70.823-59.654
			c4.688-31.24,33.826-75.28,81.429-30.188c-17.082-70.918,100.985-83.662,83.873-6.352c70.605-96.466,145.105,75.401,66.662,69.88
			c76.329,46.255-59.62,170.765-103.911,55.777C1738.695,416.937,1670.146,377.104,1702.448,342.997z"/>
		<path style="fill:#F08022;" d="M1869.92,321.082c-5.278,1.032-10.668,1.439-16.072,0.958
			c-10.665-0.949-20.439-5.133-28.531-11.927c-2.94,9.759-9.002,18.146-17.254,24.287c-15.187,11.303-36.971,14.963-55.08,9.506
			c-7.932-2.39-15.474-6.81-20.139-13.819c-3.999-6.008-4.923-13.138-3.939-20.088c-8.464,3.797-17.766,5.45-26.981,3.292
			c-16.66-3.901-28.761-19.161-32.133-35.465c-3.378-16.326,2.25-32.492,15.381-42.321c-31.034-9.202-49.859,23.264-53.547,47.839
			c-6.099,40.636,36.224,63.673,70.822,59.654c-32.302,34.107,36.247,73.939,57.23,29.464
			C1802.633,483.978,1931.783,370.242,1869.92,321.082z"/>
	</g>
	<g>
		<path style="fill:#F9AF1D;" d="M404.715,1484.133c34.598-4.018,76.921,19.019,70.823,59.654
			c-4.688,31.24-33.826,75.28-81.429,30.187c17.082,70.918-100.985,83.662-83.873,6.353c-70.605,96.466-145.105-75.401-66.662-69.88
			c-76.329-46.256,59.619-170.766,103.91-55.777C368.468,1410.194,437.017,1450.027,404.715,1484.133z"/>
		<path style="fill:#F08022;" d="M237.243,1506.05c5.278-1.032,10.668-1.439,16.072-0.958c10.665,0.949,20.439,5.134,28.531,11.928
			c2.94-9.76,9.002-18.146,17.254-24.288c15.187-11.303,36.971-14.962,55.08-9.506c7.931,2.39,15.474,6.81,20.139,13.819
			c3.999,6.008,4.923,13.137,3.939,20.088c8.464-3.798,17.766-5.45,26.981-3.292c16.659,3.902,28.76,19.162,32.133,35.466
			c3.378,16.326-2.251,32.491-15.382,42.32c31.034,9.202,49.859-23.264,53.547-47.839c6.099-40.635-36.224-63.672-70.823-59.654
			c32.301-34.106-36.247-73.939-57.23-29.464C304.53,1343.152,175.379,1456.889,237.243,1506.05z"/>
	</g>
	<g>
		<path style="fill:#F9AF1D;" d="M1660.934,1582.227c16.206-30.831,59.107-52.772,89.213-24.808
			c23.145,21.499,43.062,70.405-21.027,84.26c68.188,25.915,12.085,130.58-42.084,72.828
			c39.799,112.724-144.13,77.249-95.308,15.602c-81.259,36.914-107.338-145.581,12.587-117.261
			C1579.438,1570.429,1651.004,1536.314,1660.934,1582.227z"/>
		<path style="fill:#F08022;" d="M1584.525,1732.855c2.126-4.94,4.832-9.619,8.278-13.81c6.802-8.269,15.771-13.977,25.947-16.824
			c-6.398-7.935-9.901-17.672-10.315-27.95c-0.762-18.915,8.509-38.965,23.233-50.836c6.449-5.2,14.354-8.932,22.773-8.829
			c7.216,0.089,13.624,3.349,18.807,8.083c1.641-9.13,5.526-17.742,12.508-24.132c12.622-11.552,32.048-12.932,47.412-6.516
			c15.385,6.424,25.554,20.193,26.26,36.58c25.109-20.429,8.928-54.29-9.279-71.202c-30.107-27.965-73.007-6.024-89.213,24.807
			c-9.931-45.913-81.496-11.799-56.619,30.621C1488.01,1585.384,1509.031,1756.188,1584.525,1732.855z"/>
	</g>
	<g>
		<path style="fill:#F9AF1D;" d="M354.463,433.914c-4.444,30.71-33.949,61.89-67.546,47.356
			c-25.829-11.174-57.094-46.324-7.391-77.013c-64.968-1.492-48.969-106.068,13.691-73.672
			c-66.936-82.834,98.074-107.722,75.401-41.437c57.267-55.158,133.423,90.348,24.291,102.217
			C426.411,419.593,376.452,469.52,354.463,433.914z"/>
		<path style="fill:#F08022;" d="M384.481,278.874c8.773,6.367,15.798,14.766,19.712,24.974c6.5,16.953,3.201,36.789-8.247,50.828
			c-11.874,14.562-30.432,19.241-48.226,15.794c3.614,8.815,5.313,18.687,1.609,27.74c-5.969,14.588-23.56,20.922-38.214,17.086
			c-7.371-1.93-13.948-6.596-17.662-13.32c-4.112-7.445-4.37-16.105-2.901-24.327c-5.37,2.314-11.172,3.306-17.07,2.312
			c-11.393-1.919-20.525-11.242-23.732-22.115c-3.42-11.594,0.549-23.355,9.257-31.3c-31.565,12.678-30.156,76.548,20.519,77.711
			c-49.703,30.689-18.438,65.839,7.391,77.013c33.597,14.534,63.102-16.646,67.545-47.356c21.99,35.606,71.949-14.32,38.446-42.549
			C492.162,380.57,438.153,259.256,384.481,278.874z"/>
	</g>
</g>
</svg>
