<svg version="1.1" id="Layer_1" xmlns="http://www.w3.org/2000/svg" xmlns:xlink="http://www.w3.org/1999/xlink" viewBox="0 0 512 512" xml:space="preserve" width="253px" height="253px" fill="#000000"><g id="SVGRepo_bgCarrier" stroke-width="0"></g><g id="SVGRepo_tracerCarrier" stroke-linecap="round" stroke-linejoin="round"></g><g id="SVGRepo_iconCarrier"> <g> <path style="fill:#FFFE9F;" d="M187.751,467.392l29.293,33.478l29.293-33.477c5.975-6.831,9.663-19.541,9.663-33.306h-77.913 C178.087,447.852,181.775,460.562,187.751,467.392z"></path> <path style="fill:#FFFE9F;" d="M265.664,467.392l29.293,33.478l29.293-33.477c5.975-6.831,9.663-19.541,9.663-33.306H256 C256,447.852,259.688,460.562,265.664,467.392z"></path> </g> <g> <polygon style="fill:#e53d1f;" points="411.826,279.399 411.826,233.739 333.913,189.218 333.913,244.87 333.913,317.218 333.913,389.565 456.348,389.565 456.348,299.131 "></polygon> <polygon style="fill:#e53d1f;" points="100.174,279.399 100.174,233.739 178.087,189.218 178.087,244.87 178.087,317.218 178.087,389.565 55.652,389.565 55.652,299.131 "></polygon> </g> <path style="fill:#3cdd8c;" d="M333.913,389.565V170.042c0-58.45-25.648-113.958-70.161-151.84l-8.309-7.071l-8.265,7.136 c-43.872,37.875-69.091,92.965-69.091,150.923v220.376v44.522h155.826V389.565z"></path> <rect x="178.087" y="389.565" style="fill:#87DFD6;" width="155.826" height="44.522"></rect> <path d="M255.143,385.312c-0.278-0.679-0.623-1.325-1.024-1.926c-0.401-0.612-0.868-1.18-1.38-1.692 c-0.512-0.512-1.08-0.979-1.692-1.38c-0.601-0.401-1.247-0.746-1.914-1.024c-0.679-0.278-1.38-0.501-2.093-0.634 c-1.436-0.289-2.905-0.289-4.341,0c-0.712,0.134-1.414,0.356-2.081,0.634c-0.679,0.278-1.325,0.623-1.926,1.024 c-0.612,0.401-1.18,0.868-1.692,1.38c-0.512,0.512-0.979,1.08-1.38,1.692c-0.401,0.601-0.746,1.247-1.024,1.926 c-0.278,0.668-0.501,1.369-0.634,2.081c-0.145,0.712-0.223,1.447-0.223,2.17c0,0.723,0.078,1.458,0.223,2.17 c0.134,0.712,0.356,1.414,0.634,2.081c0.278,0.679,0.623,1.325,1.024,1.926c0.401,0.612,0.868,1.18,1.38,1.692 s1.08,0.979,1.692,1.38c0.601,0.401,1.247,0.746,1.926,1.024c0.668,0.278,1.369,0.501,2.081,0.634 c0.712,0.145,1.447,0.223,2.17,0.223c0.723,0,1.458-0.078,2.17-0.223c0.712-0.134,1.414-0.356,2.093-0.634 c0.668-0.278,1.313-0.623,1.914-1.024c0.612-0.401,1.18-0.868,1.692-1.38s0.979-1.08,1.38-1.692 c0.401-0.601,0.746-1.247,1.024-1.926c0.278-0.668,0.501-1.369,0.634-2.081c0.145-0.712,0.223-1.447,0.223-2.17 c0-0.723-0.078-1.458-0.223-2.17C255.644,386.681,255.421,385.98,255.143,385.312z"></path> <path d="M460.858,288.954l-37.901-16.797v-38.418c0-3.994-2.14-7.682-5.609-9.665l-72.304-41.317v-12.715 c0-61.818-27-120.252-74.077-160.316l-8.309-7.072c-4.182-3.557-10.331-3.536-14.487,0.051l-8.265,7.136 c-46.359,40.023-72.948,98.104-72.948,159.349v13.568l-72.304,41.317c-3.468,1.982-5.609,5.67-5.609,9.665v38.418l-37.901,16.797 c-4.026,1.784-6.62,5.773-6.62,10.177v90.435c0,6.147,4.983,11.13,11.13,11.13h111.304v33.391c0,16.558,4.643,31.748,12.418,40.635 l29.292,33.477c2.114,2.415,5.167,3.801,8.377,3.801s6.263-1.386,8.377-3.801l29.292-33.477c0.441-0.503,0.868-1.033,1.288-1.576 c0.42,0.543,0.847,1.073,1.288,1.576l29.292,33.477c2.113,2.415,5.167,3.801,8.376,3.801c3.209,0,6.263-1.386,8.376-3.801 l29.292-33.477c7.778-8.887,12.42-24.077,12.42-40.635v-33.391h111.304c6.146,0,11.13-4.983,11.13-11.13v-90.435 C467.478,294.727,464.883,290.738,460.858,288.954z M189.217,169.189c0-54.77,23.777-106.709,65.233-142.499l1.044-0.902 l1.044,0.888c42.099,35.829,66.244,88.083,66.244,143.364v19.176v189.217h-44.522c-6.146,0-11.13,4.983-11.13,11.13 s4.984,11.13,11.13,11.13h44.522v22.261H256h-66.783v-22.261h22.261c6.147,0,11.13-4.983,11.13-11.13s-4.983-11.13-11.13-11.13 h-22.261V189.218V169.189z M66.783,306.372l37.901-16.797c4.026-1.784,6.62-5.773,6.62-10.177v-39.2l55.652-31.801v170.037H66.783 V306.372z M237.959,460.063l-20.915,23.904l-20.916-23.904c-2.324-2.657-4.663-7.883-5.936-14.846h53.702 C242.622,452.181,240.284,457.406,237.959,460.063z M315.873,460.063l-20.916,23.904l-20.916-23.904 c-2.324-2.657-4.663-7.883-5.935-14.846h53.702C320.535,452.181,318.197,457.406,315.873,460.063z M445.217,378.435H345.044V208.398 l55.652,31.801v39.2c0,4.403,2.596,8.392,6.62,10.177l37.901,16.797V378.435z"></path> <path d="M256.649,289.391c18.412,0,33.391-14.979,33.391-33.391c0-6.147-4.984-11.13-11.13-11.13c-6.146,0-11.13,4.983-11.13,11.13 c0,6.137-4.993,11.13-11.13,11.13c-6.137,0-11.13-4.993-11.13-11.13v-89.043c0-6.137,4.993-11.13,11.13-11.13 c6.137,0,11.13,4.993,11.13,11.13v22.261c0,6.147,4.984,11.13,11.13,11.13c6.146,0,11.13-4.983,11.13-11.13v-22.261 c0-18.412-14.979-33.391-33.391-33.391s-33.391,14.979-33.391,33.391V256C223.258,274.412,238.237,289.391,256.649,289.391z"></path> <path d="M288.166,216.43c-0.411-0.612-0.867-1.18-1.391-1.692c-0.512-0.512-1.08-0.979-1.692-1.38 c-0.601-0.401-1.247-0.746-1.914-1.024c-0.669-0.278-1.369-0.501-2.081-0.634c-1.436-0.289-2.916-0.289-4.352,0 c-0.712,0.134-1.415,0.356-2.081,0.634s-1.325,0.623-1.924,1.024c-0.613,0.401-1.181,0.868-1.693,1.38s-0.979,1.08-1.38,1.692 c-0.4,0.601-0.746,1.247-1.024,1.926c-0.278,0.668-0.489,1.369-0.633,2.081c-0.146,0.712-0.223,1.447-0.223,2.17 c0,0.723,0.077,1.458,0.223,2.17c0.145,0.712,0.355,1.414,0.633,2.081c0.278,0.679,0.624,1.325,1.024,1.926 c0.401,0.612,0.868,1.18,1.38,1.692c0.512,0.512,1.08,0.979,1.693,1.38c0.6,0.401,1.258,0.746,1.924,1.024s1.369,0.501,2.081,0.634 c0.712,0.145,1.447,0.223,2.17,0.223c0.735,0,1.458-0.078,2.182-0.223c0.712-0.134,1.414-0.356,2.081-0.634s1.313-0.623,1.914-1.024 c0.612-0.401,1.18-0.868,1.692-1.38c0.524-0.512,0.981-1.08,1.391-1.692c0.401-0.601,0.746-1.247,1.024-1.926 c0.278-0.668,0.49-1.369,0.634-2.081c0.145-0.712,0.211-1.447,0.211-2.17c0-0.723-0.068-1.458-0.211-2.17s-0.356-1.414-0.634-2.081 C288.912,217.677,288.568,217.031,288.166,216.43z"></path> </g></svg>
