<svg viewBox="0 0 32 32" xmlns="http://www.w3.org/2000/svg" fill="#000000"><g id="SVGRepo_bgCarrier" stroke-width="0"></g><g id="SVGRepo_tracerCarrier" stroke-linecap="round" stroke-linejoin="round"></g><g id="SVGRepo_iconCarrier"> <defs> <style>.cls-1{fill:none;stroke:#dd2853;stroke-miterlimit:10;stroke-width:2px;}.cls-2{fill:#e291a8;}.cls-3{fill:#dd2853;}</style> </defs> <title></title> <g data-name="Layer 2" id="Layer_2"> <path class="cls-1" d="M18,2H14a3,3,0,0,0-3,3V7a1,1,0,0,0,1,1h8a1,1,0,0,0,1-1V5A3,3,0,0,0,18,2Z"></path> <rect class="cls-2" height="20" rx="3" ry="3" width="28" x="2" y="6"></rect> <path class="cls-3" d="M14,13h1v1a1,1,0,0,0,2,0V13h1a1,1,0,0,0,0-2H17V10a1,1,0,0,0-2,0v1H14a1,1,0,0,0,0,2Z"></path> <path class="cls-3" d="M30,10.52v2L16.45,18.29a1,1,0,0,1-.82,0L2,12.5V10.55a1.06,1.06,0,0,1,.8,0L16,16.19l13.25-5.63A1,1,0,0,1,30,10.52Z"></path> </g> </g></svg>
