<svg viewBox="0 0 1024 1024" class="icon" version="1.1" xmlns="http://www.w3.org/2000/svg" fill="#000000"><g id="SVGRepo_bgCarrier" stroke-width="0"></g><g id="SVGRepo_tracerCarrier" stroke-linecap="round" stroke-linejoin="round"></g><g id="SVGRepo_iconCarrier"><path d="M319.488 280.576h61.44v61.44h-61.44zM380.928 280.576h61.44v61.44h-61.44zM442.368 219.136h61.44v61.44h-61.44z" fill="#eebe5d"></path><path d="M442.368 280.576h61.44v61.44h-61.44z" fill="#f03c28"></path><path d="M501.76 219.136h61.44v61.44h-61.44z" fill="#eebe5d"></path><path d="M501.76 280.576h61.44v61.44h-61.44z" fill="#f03c28"></path><path d="M563.2 280.576h61.44v61.44h-61.44zM260.096 339.968h61.44v61.44h-61.44zM260.096 401.408h61.44v61.44h-61.44z" fill="#eebe5d"></path><path d="M319.488 339.968h61.44v61.44h-61.44zM380.928 339.968h61.44v61.44h-61.44zM319.488 401.408h61.44v61.44h-61.44zM380.928 401.408h61.44v61.44h-61.44zM442.368 339.968h61.44v61.44h-61.44zM442.368 401.408h61.44v61.44h-61.44z" fill="#f03c28"></path><path d="M501.76 339.968h61.44v61.44h-61.44zM563.2 339.968h61.44v61.44h-61.44zM501.76 401.408h61.44v61.44h-61.44zM563.2 401.408h61.44v61.44h-61.44z" fill="#f03c28"></path><path d="M198.656 462.848h61.44v61.44h-61.44z" fill="#eebe5d"></path><path d="M260.096 462.848h61.44v61.44h-61.44z" fill="#f03c28"></path><path d="M319.488 462.848h61.44v61.44h-61.44zM380.928 462.848h61.44v61.44h-61.44z" fill="#f03c28"></path><path d="M442.368 462.848h61.44v61.44h-61.44z" fill="#eebe5d"></path><path d="M501.76 462.848h61.44v61.44h-61.44z" fill="#eebe5d"></path><path d="M563.2 462.848h61.44v61.44h-61.44z" fill="#f03c28"></path><path d="M198.656 522.24h61.44v61.44h-61.44z" fill="#eebe5d"></path><path d="M260.096 522.24h61.44v61.44h-61.44z" fill="#f03c28"></path><path d="M260.096 583.68h61.44v61.44h-61.44z" fill="#eebe5d"></path><path d="M319.488 522.24h61.44v61.44h-61.44zM380.928 522.24h61.44v61.44h-61.44zM319.488 583.68h61.44v61.44h-61.44zM380.928 583.68h61.44v61.44h-61.44z" fill="#f03c28"></path><path d="M442.368 522.24h61.44v61.44h-61.44z" fill="#eebe5d"></path><path d="M442.368 583.68h61.44v61.44h-61.44z" fill="#f03c28"></path><path d="M501.76 522.24h61.44v61.44h-61.44z" fill="#eebe5d"></path><path d="M563.2 522.24h61.44v61.44h-61.44zM501.76 583.68h61.44v61.44h-61.44zM563.2 583.68h61.44v61.44h-61.44z" fill="#f03c28"></path><path d="M624.64 280.576h61.44v61.44h-61.44z" fill="#eebe5d"></path><path d="M624.64 339.968h61.44v61.44h-61.44z" fill="#f03c28"></path><path d="M684.032 339.968h61.44v61.44h-61.44z" fill="#eebe5d"></path><path d="M624.64 401.408h61.44v61.44h-61.44z" fill="#f03c28"></path><path d="M684.032 401.408h61.44v61.44h-61.44z" fill="#eebe5d"></path><path d="M624.64 462.848h61.44v61.44h-61.44z" fill="#f03c28"></path><path d="M684.032 462.848h61.44v61.44h-61.44z" fill="#f03c28"></path><path d="M624.64 522.24h61.44v61.44h-61.44z" fill="#f03c28"></path><path d="M684.032 522.24h61.44v61.44h-61.44zM624.64 583.68h61.44v61.44h-61.44z" fill="#f03c28"></path><path d="M684.032 583.68h61.44v61.44h-61.44zM260.096 645.12h61.44v61.44h-61.44z" fill="#eebe5d"></path><path d="M319.488 645.12h61.44v61.44h-61.44zM380.928 645.12h61.44v61.44h-61.44z" fill="#f03c28"></path><path d="M319.488 704.512h61.44v61.44h-61.44zM380.928 704.512h61.44v61.44h-61.44z" fill="#eebe5d"></path><path d="M442.368 645.12h61.44v61.44h-61.44z" fill="#f03c28"></path><path d="M442.368 704.512h61.44v61.44h-61.44z" fill="#f03c28"></path><path d="M501.76 645.12h61.44v61.44h-61.44zM563.2 645.12h61.44v61.44h-61.44z" fill="#f03c28"></path><path d="M501.76 704.512h61.44v61.44h-61.44z" fill="#f03c28"></path><path d="M563.2 704.512h61.44v61.44h-61.44z" fill="#eebe5d"></path><path d="M624.64 645.12h61.44v61.44h-61.44z" fill="#f03c28"></path><path d="M684.032 645.12h61.44v61.44h-61.44z" fill="#eebe5d"></path><path d="M624.64 704.512h61.44v61.44h-61.44zM745.472 462.848h61.44v61.44h-61.44z" fill="#eebe5d"></path><path d="M745.472 522.24h61.44v61.44h-61.44zM442.368 765.952h61.44v61.44h-61.44z" fill="#eebe5d"></path><path d="M501.76 765.952h61.44v61.44h-61.44z" fill="#eebe5d"></path></g></svg>
